<svg width="35" height="36" viewBox="0 0 35 36" fill="none" xmlns="http://www.w3.org/2000/svg">
<path d="M17.5078 9.01562C12.5391 9.01562 8.53125 13.0234 8.53125 17.9922C8.53125 22.9609 12.5391 26.9687 17.5078 26.9687C22.4766 26.9687 26.4844 22.9609 26.4844 17.9922C26.4844 13.0234 22.4766 9.01562 17.5078 9.01562ZM17.5078 23.8281C14.2969 23.8281 11.6719 21.2109 11.6719 17.9922C11.6719 14.7734 14.2891 12.1562 17.5078 12.1562C20.7266 12.1562 23.3438 14.7734 23.3438 17.9922C23.3438 21.2109 20.7188 23.8281 17.5078 23.8281ZM28.9453 8.64844C28.9453 9.8125 28.0078 10.7422 26.8516 10.7422C25.6875 10.7422 24.7578 9.80469 24.7578 8.64844C24.7578 7.49219 25.6953 6.55469 26.8516 6.55469C28.0078 6.55469 28.9453 7.49219 28.9453 8.64844ZM34.8906 10.7734C34.7578 7.96875 34.1172 5.48438 32.0625 3.4375C30.0156 1.39062 27.5313 0.75 24.7266 0.609375C21.8359 0.445312 13.1719 0.445312 10.2812 0.609375C7.48438 0.742188 5 1.38281 2.94531 3.42969C0.890625 5.47656 0.257812 7.96094 0.117187 10.7656C-0.046875 13.6562 -0.046875 22.3203 0.117187 25.2109C0.25 28.0156 0.890625 30.5 2.94531 32.5469C5 34.5938 7.47656 35.2344 10.2812 35.375C13.1719 35.5391 21.8359 35.5391 24.7266 35.375C27.5313 35.2422 30.0156 34.6016 32.0625 32.5469C34.1094 30.5 34.75 28.0156 34.8906 25.2109C35.0547 22.3203 35.0547 13.6641 34.8906 10.7734ZM31.1562 28.3125C30.5469 29.8438 29.3672 31.0234 27.8281 31.6406C25.5234 32.5547 20.0547 32.3438 17.5078 32.3438C14.9609 32.3438 9.48438 32.5469 7.1875 31.6406C5.65625 31.0312 4.47656 29.8516 3.85938 28.3125C2.94531 26.0078 3.15625 20.5391 3.15625 17.9922C3.15625 15.4453 2.95313 9.96875 3.85938 7.67188C4.46875 6.14062 5.64844 4.96094 7.1875 4.34375C9.49219 3.42969 14.9609 3.64062 17.5078 3.64062C20.0547 3.64062 25.5313 3.4375 27.8281 4.34375C29.3594 4.95312 30.5391 6.13281 31.1562 7.67188C32.0703 9.97656 31.8594 15.4453 31.8594 17.9922C31.8594 20.5391 32.0703 26.0156 31.1562 28.3125Z" fill="gray.600"/>
</svg>
